P3

3 3
255

#RED

255 0 0
#YELLOW

255 255 0
#GREEN

0 255 0
#WHITE

255 255 255
#CYAN
0 255 255
#BLACK
0 0 0
#BLUE
0 0 255
#MAGENTA

255 0 255
#RED
255 0 0
